<?xml version="1.0" encoding="UTF-8"?>
<svg width="72px" height="72px" viewBox="0 0 72 72" version="1.1" xmlns="http://www.w3.org/2000/svg" xmlns:xlink="http://www.w3.org/1999/xlink">
    <!-- Generator: Sketch 50 (54983) - http://www.bohemiancoding.com/sketch -->
    <title>Group Copy 14</title>
    <desc>Created with Sketch.</desc>
    <defs>
        <rect id="path-1" x="0" y="0" width="72" height="72" rx="36"></rect>
    </defs>
    <g id="Page-1" stroke="none" stroke-width="1" fill="none" fill-rule="evenodd">
        <g id="Group-Copy-14">
            <mask id="mask-2" fill="white">
                <use xlink:href="#path-1"></use>
            </mask>
            <g id="Mask"></g>
            <g id="Group-Copy-11" mask="url(#mask-2)">
                <g transform="translate(-49.811321, -30.792453)">
                    <g id="Circles-Copy" stroke-width="1" fill="none">
                        <circle id="Oval-Copy-4" fill="#2E46E5" cx="66.7924528" cy="66.7924528" r="66.7924528"></circle>
                        <circle id="Oval-Copy-3" fill="#185DF2" cx="67.32332" cy="67.32332" r="46.5347975"></circle>
                        <circle id="Oval-Copy-2" fill="#0080FF" cx="67.1109731" cy="67.1109731" r="28.1359577"></circle>
                        <circle id="Oval-Copy" fill="#3399FF" cx="67.4294934" cy="67.4294934" r="14.0148922"></circle>
                    </g>
                    <path d="M62.9038511,61.7308625 L71.690712,61.7308625 L71.690712,72.0827845 L69.3794289,72.0827845 L69.3794289,63.605777 L65.2151343,63.605777 L65.2151343,72.0827845 L62.9038511,72.0827845 L62.9038511,61.7308625 Z M75.1775616,68.4127389 C75.3236779,67.7345749 75.4199804,66.8536398 75.466472,65.7699072 C75.5129635,64.6861745 75.536209,63.3398398 75.536209,61.7308625 L82.9681797,61.7308625 L82.9681797,72.0827845 L80.6568966,72.0827845 L80.6568966,63.605777 L77.6482436,63.605777 C77.621677,64.9754023 77.5685445,66.1854415 77.4888447,67.2359308 C77.4091449,68.2864201 77.2464269,69.1740038 77.0006858,69.8987084 C76.7549447,70.6234131 76.4029424,71.1785684 75.9446685,71.5641911 C75.4863945,71.9498137 74.872051,72.1426222 74.1016194,72.1426222 C73.995353,72.1426222 73.892409,72.1392979 73.7927842,72.1326492 C73.6931594,72.1260006 73.5902154,72.1160277 73.4839489,72.1027304 L73.4839489,69.9485732 C73.616782,69.9751679 73.7164052,69.988465 73.7828218,69.988465 C74.1414709,69.988465 74.4303784,69.8588179 74.6495529,69.5995199 C74.8687274,69.340222 75.0447286,68.9446322 75.1775616,68.4127389 Z M99.1870114,66.8968505 C99.1870114,67.7611772 99.0608219,68.5257623 98.8084392,69.190629 C98.5560564,69.8554957 98.207375,70.4172995 97.7623843,70.8760575 C97.3173937,71.3348155 96.7927111,71.6838653 96.1883208,71.9232173 C95.5839305,72.1625693 94.9297377,72.2822435 94.2257226,72.2822435 C93.5881241,72.2822435 92.9903844,72.182515 92.4324857,71.983055 C91.874587,71.783595 91.3831122,71.4877338 90.9580465,71.0954624 C90.5329808,70.7031911 90.1809785,70.2244943 89.9020292,69.6593576 C89.6230798,69.094221 89.4437579,68.4459857 89.3640581,67.7146324 L87.8896188,67.7146324 L87.8896188,72.0827845 L85.5783357,72.0827845 L85.5783357,61.7308625 L87.8896188,61.7308625 L87.8896188,65.8397178 L89.4039078,65.8397178 C89.4968909,65.1482565 89.6828544,64.5332641 89.9618037,63.9947221 C90.2407531,63.4561801 90.5927553,63.0040776 91.017821,62.6384009 C91.4428867,62.2727242 91.92772,61.9968087 92.4723354,61.8106461 C93.0169508,61.6244834 93.6014074,61.5314035 94.2257226,61.5314035 C94.9297377,61.5314035 95.5839305,61.6477534 96.1883208,61.8804567 C96.7927111,62.11316 97.3173937,62.4588855 97.7623843,62.9176435 C98.207375,63.3764015 98.5560564,63.9382054 98.8084392,64.603072 C99.0608219,65.2679387 99.1870114,66.0325239 99.1870114,66.8968505 Z M94.2257226,70.3474912 C94.9695876,70.3474912 95.5872519,70.0682514 96.0787341,69.5097634 C96.5702163,68.9512754 96.8159537,68.0803132 96.8159537,66.8968505 C96.8159537,65.7266852 96.5702163,64.8590472 96.0787341,64.2939106 C95.5872519,63.7287739 94.9695876,63.4462098 94.2257226,63.4462098 C93.495141,63.4462098 92.887439,63.7254497 92.4025984,64.2839376 C91.9177579,64.8424256 91.6753412,65.7133879 91.6753412,66.8968505 C91.6753412,68.0803132 91.9177579,68.9512754 92.4025984,69.5097634 C92.887439,70.0682514 93.495141,70.3474912 94.2257226,70.3474912 Z M105.901687,72.2822435 C105.064839,72.2822435 104.314344,72.159245 103.650179,71.9132443 C102.986014,71.6672437 102.421482,71.3148696 101.956566,70.8561116 C101.491651,70.3973536 101.133007,69.8355498 100.880624,69.1706831 C100.628241,68.5058164 100.502052,67.7478798 100.502052,66.8968505 C100.502052,66.0591185 100.628241,65.3078305 100.880624,64.6429638 C101.133007,63.9780972 101.491651,63.4162933 101.956566,62.9575353 C102.421482,62.4987773 102.992655,62.1464033 103.670104,61.9004026 C104.347552,61.6544019 105.104689,61.5314035 105.941537,61.5314035 C106.658836,61.5314035 107.286462,61.6111863 107.824436,61.7707543 C108.36241,61.9303223 108.79079,62.1297793 109.109589,62.3691313 L109.109589,64.2839376 C108.697807,64.017991 108.249502,63.8118854 107.764661,63.6656147 C107.279821,63.5193441 106.71861,63.4462098 106.081011,63.4462098 C103.942399,63.4462098 102.87311,64.5964119 102.87311,66.8968505 C102.87311,69.1972891 103.922475,70.3474912 106.021237,70.3474912 C106.698685,70.3474912 107.279821,70.2710327 107.764661,70.1181133 C108.249502,69.965194 108.697807,69.7690613 109.109589,69.5297093 L109.109589,71.4445157 C108.764223,71.6705703 108.332522,71.8667031 107.814473,72.0329197 C107.296425,72.1991364 106.658836,72.2822435 105.901687,72.2822435 Z" id="Plus" fill="#FFFFFF"></path>
                </g>
            </g>
        </g>
    </g>
</svg>